<svg xmlns="http://www.w3.org/2000/svg" width="136.359" height="165.56" viewBox="0 0 136.359 165.56">
  <g id="picasso" transform="translate(-0.5)">
    <path id="Trazado_101924" data-name="Trazado 101924" d="M8,7.5V168.209H139.511V7.5Zm0,0" transform="translate(-5.077 -5.075)" fill="#fdd835"/>
    <path id="Trazado_101925" data-name="Trazado 101925" d="M130.7,34.542q-.125,4.346-.249,8.685c-.006.234-.013.47-.019.7-.066-.039-.13-.075-.2-.107a28.313,28.313,0,0,0-10.345-16.359,28,28,0,0,0-8.669-4.482h-11.9c-.164.168-.33.33-.5.483-6.073,5.516-13.6,9.108-20.591,13.4a56.774,56.774,0,0,0-6.544,4.666l.032.039V80.847A29.469,29.469,0,0,0,75.98,96.14q.462.756.968,1.484a29.637,29.637,0,0,0,9.077,8.511c-1.685,9.206-10.264,16.255-19.57,17.8-8.99,1.49-18.151-4.973-19.279-11.57v-.724A26.262,26.262,0,0,0,59.609,92.579l0,0A24.074,24.074,0,0,1,55.1,88.52,29.73,29.73,0,0,1,48.229,69.3q0-1.446.136-2.888a35.52,35.52,0,0,1,9.985-21.047l.418-.162a32.651,32.651,0,0,1-1.84-16.4,31.72,31.72,0,0,1,1.445-5.827,32.7,32.7,0,0,1,9.976-14.36V7.5h45.861v.11a17.318,17.318,0,0,1,13.527,8.345,21.09,21.09,0,0,1,2.49,7.027c.123.673.22,1.349.3,2.027A68.193,68.193,0,0,1,130.7,34.542Zm0,0" transform="translate(-31.583 -5.075)" fill="#26ccda"/>
    <path id="Trazado_101926" data-name="Trazado 101926" d="M267.5,293.511a28.217,28.217,0,0,1-7.5,13.1,17.316,17.316,0,0,1-12.783,5.074c-11.964-.476-18.14-13.1-19.078-23.605v0a16.25,16.25,0,0,0,13.307-16v-1.109c4.21-2.075,8.258,4.809,10.936,6.89,3.242,2.522,8.261,3.445,11.486.344A9.9,9.9,0,0,0,266,274.885C268.989,280.519,269.13,287.348,267.5,293.511Zm0,0" transform="translate(-154.034 -183.084)" fill="#26ccda"/>
    <path id="Trazado_101927" data-name="Trazado 101927" d="M153.347,358.4v8.942H47.176v-7.3s10.4-11.062,19.049-11.389l38.444,1.314-.974-24.857-.966-.162c.32,0,.64-.01.954-.029a15.92,15.92,0,0,0,2.011-.243v0c.939,10.505,7.114,23.129,19.078,23.605a17.316,17.316,0,0,0,12.783-5.074l.178.184Zm0,0" transform="translate(-31.583 -219.692)" fill="#736572"/>
    <path id="Trazado_101928" data-name="Trazado 101928" d="M119.007,22.982c-.164.168-.33.33-.5.483-6.073,5.516-13.6,9.108-20.591,13.4a56.775,56.775,0,0,0-6.544,4.666A46.286,46.286,0,0,0,82.21,51.574l-.537-.126a31.865,31.865,0,0,1-3.211-6.241,32.651,32.651,0,0,1-1.84-16.4,31.721,31.721,0,0,1,1.445-5.827,32.7,32.7,0,0,1,9.976-14.36V7.5h34.608v.914C124.657,13.091,122.284,19.61,119.007,22.982Zm0,0" transform="translate(-51.276 -5.075)" fill="#26ccda"/>
    <path id="Trazado_101929" data-name="Trazado 101929" d="M79.152,176.526a27.847,27.847,0,0,1-17.335-5.047,24.074,24.074,0,0,1-4.512-4.056,29.73,29.73,0,0,1-6.871-19.217q0-1.446.136-2.888a35.52,35.52,0,0,1,9.985-21.047l.418-.162a31.864,31.864,0,0,0,3.211,6.241l.537.126a31.885,31.885,0,0,0-5.54,20.223c.7,9.212,8.181,18.4,17.129,20.7a29.215,29.215,0,0,0,1.874,3.642Q78.647,175.8,79.152,176.526Zm0,0" transform="translate(-33.787 -83.977)" fill="#26ccda"/>
    <path id="Trazado_101930" data-name="Trazado 101930" d="M86.024,284.16c-1.685,9.206-10.264,16.255-19.57,17.8-8.99,1.49-18.151-4.973-19.279-11.57v-.724A26.262,26.262,0,0,0,59.609,270.6l0,0a27.847,27.847,0,0,0,17.335,5.047A29.637,29.637,0,0,0,86.024,284.16Zm0,0" transform="translate(-31.583 -183.1)" fill="#26ccda"/>
    <path id="Trazado_101931" data-name="Trazado 101931" d="M239.328,22.982H208.414c3.277-3.373,5.65-9.892,3.644-14.568V7.5h11.253v.11a17.318,17.318,0,0,1,13.527,8.345A21.091,21.091,0,0,1,239.328,22.982Zm0,0" transform="translate(-140.683 -5.075)" fill="#76a199"/>
    <path id="Trazado_101932" data-name="Trazado 101932" d="M171.058,114.269l-12.19-.12-.006.553V126.46a16.25,16.25,0,0,1-13.307,16,15.924,15.924,0,0,1-2.011.243l.013.191.974,24.857-38.444-1.314,23.9-25.855,0-.006a28.981,28.981,0,0,1-4.1-2.044,29.636,29.636,0,0,1-9.077-8.511q-.5-.728-.968-1.484a29.47,29.47,0,0,1-4.268-15.293V73.963l-.032-.039a56.772,56.772,0,0,1,6.544-4.666c6.994-4.288,14.518-7.881,20.591-13.4.168-.153.333-.315.5-.483h11.9a37.394,37.394,0,0,1,8.669,4.482C172.028,67.651,170.5,85.352,170.5,85.352Zm0,0" transform="translate(-71.444 -37.472)" fill="#f2d1a5"/>
    <path id="Trazado_101933" data-name="Trazado 101933" d="M115.787,166.436l23.9-25.855,0-.006a29.05,29.05,0,0,1-4.1-2.044,29.651,29.651,0,0,1-9.077-8.511q-.5-.728-.966-1.484a29.43,29.43,0,0,1-4.268-15.293V78.721a9.518,9.518,0,0,1,3.954-7.727c.92-.661,1.838-1.3,2.559-1.737,6.994-4.288,14.518-7.881,20.591-13.4.168-.153.332-.315.5-.483h-9.7c-.164.168-.33.33-.5.483-6.073,5.516-13.6,9.108-20.591,13.4a56.772,56.772,0,0,0-6.544,4.666l.032.039v39.281a29.47,29.47,0,0,0,4.268,15.293q.462.756.968,1.484a29.636,29.636,0,0,0,9.077,8.511,28.981,28.981,0,0,0,4.1,2.044l0,.006-23.9,25.855,38.444,1.314-.014-.332Zm0,0" transform="translate(-71.444 -37.472)" fill="#f2bb88"/>
    <path id="Trazado_101934" data-name="Trazado 101934" d="M299.314,237.129v.1l2.491.024,0-.095Zm0,0" transform="translate(-202.189 -160.451)" fill="#e3e1c1"/>
    <path id="Trazado_101935" data-name="Trazado 101935" d="M135.055,151.008l14.309-2.91,13.822,3.153-14.55,7.761Zm0,0" transform="translate(-91.045 -100.209)" fill="#e6e6f0"/>
    <path id="Trazado_101936" data-name="Trazado 101936" d="M241.551,144.456l9.7-4.608,10.427,2.668-8.731,7.761Z" transform="translate(-163.105 -94.627)" fill="#e6e6f0"/>
    <path id="Trazado_101937" data-name="Trazado 101937" d="M159.68,265.662l26.474.863-12.461-8.193Zm0,0" transform="translate(-107.707 -174.798)" fill="#ff485a"/>
    <path id="Trazado_101938" data-name="Trazado 101938" d="M8,7.5V168.209H139.511V7.5ZM126.842,152.727H20.67V112.362c-.039-.222-.068-.446-.087-.669.029-.015.058-.035.087-.054V22.982H126.842Zm0,0" transform="translate(-5.077 -5.075)" fill="#f57c00"/>
    <path id="Trazado_101939" data-name="Trazado 101939" d="M8,7.5V168.209L20.67,152.727V22.982Zm0,0" transform="translate(-5.077 -5.075)" fill="#f57c00"/>
    <path id="Trazado_101940" data-name="Trazado 101940" d="M388.182,7.5V168.209l-12.667-15.482V22.982Zm0,0" transform="translate(-253.751 -5.075)" fill="#f57c00"/>
    <path id="Trazado_101941" data-name="Trazado 101941" d="M162.339,111.525a43.454,43.454,0,0,0-23.694,2.421,2.425,2.425,0,1,0,1.795,4.506,39.163,39.163,0,0,1,21.052-2.151,2.425,2.425,0,1,0,.846-4.776Zm0,0" transform="translate(-92.441 -75.01)"/>
    <path id="Trazado_101942" data-name="Trazado 101942" d="M167.5,251.11l-14.012,7.33a2.425,2.425,0,0,0,1.045,4.573l26.472.863h.08a2.425,2.425,0,0,0,1.331-4.451l-12.461-8.193A2.424,2.424,0,0,0,167.5,251.11Zm5.056,7.637-8.652-.282,4.58-2.4Zm0,0" transform="translate(-102.635 -169.724)"/>
    <path id="Trazado_101943" data-name="Trazado 101943" d="M136.4,164.554c.016-.024.035-.047.052-.071s.048-.078.071-.117.035-.057.052-.087.034-.071.051-.106.037-.072.052-.109.023-.062.034-.093.033-.086.045-.131c.009-.028.015-.057.023-.086.013-.048.025-.095.035-.143s.011-.073.016-.109.015-.082.019-.125q.011-.119.011-.239V2.421q0-.119-.011-.239c0-.043-.013-.083-.019-.124s-.009-.073-.016-.11-.023-.095-.035-.143c-.008-.029-.014-.058-.023-.086-.014-.044-.03-.087-.045-.131s-.021-.062-.034-.093-.034-.073-.052-.109-.032-.072-.051-.106-.034-.058-.052-.087-.045-.08-.071-.117-.035-.047-.052-.071c-.029-.04-.058-.081-.09-.119s-.047-.052-.069-.078-.058-.066-.088-.1c-.057-.056-.115-.11-.177-.16l0,0c-.014-.011-.029-.021-.044-.033-.047-.037-.1-.075-.147-.109-.025-.016-.052-.032-.078-.047-.042-.027-.083-.052-.126-.075s-.063-.032-.095-.047S135.4.2,135.36.183l-.107-.039c-.038-.014-.076-.028-.116-.04s-.078-.02-.117-.03-.075-.019-.112-.027-.091-.015-.136-.021l-.1-.014c-.059-.005-.12-.008-.181-.009l-.057,0H2.925L2.876,0c-.063,0-.125,0-.188.009L2.6.025c-.048.006-.1.013-.143.021s-.071.016-.106.025S2.263.092,2.222.1s-.073.025-.11.038S2.036.169,2,.184s-.075.034-.112.052-.068.032-.1.049S1.7.332,1.662.357,1.606.389,1.58.408c-.051.033-.1.069-.145.107-.015.011-.03.02-.045.033l0,0a2.381,2.381,0,0,0-.177.16c-.032.032-.059.064-.088.1s-.048.051-.071.078S.991.965.962,1.005c-.018.024-.035.047-.052.071s-.048.078-.072.117S.8,1.25.788,1.281s-.035.071-.052.106S.7,1.459.686,1.5.663,1.559.65,1.59.619,1.676.6,1.72c-.009.028-.014.057-.023.086-.013.048-.025.095-.035.143s-.01.073-.016.11-.014.081-.019.124Q.5,2.3.5,2.421V163.138q0,.119.011.239c.005.043.013.083.019.125s.009.072.016.109.023.095.035.143c.008.029.014.058.023.086.014.044.03.087.045.13s.023.063.035.095.033.072.051.109.033.072.052.106.034.058.051.087.047.08.072.117.034.047.052.071c.029.04.057.081.088.119s.047.052.071.078.057.066.088.1a2.378,2.378,0,0,0,.177.16l0,0,.008.005a2.535,2.535,0,0,0,.327.224l.028.016a2.467,2.467,0,0,0,.339.152l.059.023a2.355,2.355,0,0,0,.344.087c.023.005.045.008.068.011a2.4,2.4,0,0,0,.359.029H134.44a2.411,2.411,0,0,0,.359-.029c.023,0,.045-.006.068-.011a2.338,2.338,0,0,0,.342-.087l.061-.023a2.451,2.451,0,0,0,.337-.152c.009-.005.019-.013.029-.018a2.426,2.426,0,0,0,.326-.222l.008-.005,0,0a2.381,2.381,0,0,0,.177-.16c.032-.032.059-.064.088-.1s.048-.051.071-.078S136.369,164.595,136.4,164.554ZM120.617,15.482h-21.9c-.014,0-.028,0-.042,0h-19c-.03,0-.059,0-.088,0H16.744L8.043,4.85H129.316ZM97.141,74.349,71.655,74.1V69.714a2.425,2.425,0,1,0-4.85,0V76.5a2.426,2.426,0,0,0,2.4,2.425l15.786.153v9.907a13.862,13.862,0,0,1-13.848,13.846H69.619A27.094,27.094,0,0,1,42.554,75.772V52.733a2.535,2.535,0,0,0,.225.155l13.58,8a2.423,2.423,0,0,0,2.372.051l14.551-7.761a2.425,2.425,0,0,0-.6-4.5L58.857,45.524a2.409,2.409,0,0,0-1.023-.011l-14.309,2.91a2.412,2.412,0,0,0-.971.438V37.55a57.987,57.987,0,0,1,5.354-3.7c1.828-1.12,3.739-2.219,5.587-3.282,5.205-2.992,10.584-6.088,15.2-10.24H79.234a25.468,25.468,0,0,1,7.593,3.983,25.951,25.951,0,0,1,8.022,10.449,21.7,21.7,0,0,0-13.412,1.859,2.425,2.425,0,1,0,1.987,4.425c3.407-1.528,8.328-2.8,13.057-.678l.087,4.5-7.821-2a2.428,2.428,0,0,0-1.641.158l-9.7,4.608a2.425,2.425,0,0,0-.063,4.35l11.4,5.82a2.426,2.426,0,0,0,2.714-.347l5.267-4.682Zm-.548,51.571a2.425,2.425,0,0,0,.467,4.8,2.524,2.524,0,0,0,.472-.045,19.731,19.731,0,0,0,8.342-3.871l13.466,12.936v5.484H18.019v-3.89c3.211-3.215,10.825-9.683,16.656-9.945L73,132.7h.083a2.425,2.425,0,0,0,2.423-2.52l-.494-12.607q.4.843.834,1.647a22.6,22.6,0,0,0,10.606,10.3,2.425,2.425,0,0,0,1.925-4.451c-6.6-2.853-10.455-10.894-11.6-18.256a18.736,18.736,0,0,0,13.028-16.7c1.37.577,3.044,2.423,4.359,3.873a23.488,23.488,0,0,0,2.7,2.692,13.3,13.3,0,0,0,7.053,2.785,9.737,9.737,0,0,0,7.47-2.485,25.387,25.387,0,0,1-.261,12.826C108.408,120.119,101.6,124.932,96.593,125.919Zm-26.82-18.233.788,20.079-30.545-1.043,19.2-20.776a31.786,31.786,0,0,0,10.4,1.741ZM33.5,126.628c-5.679.669-11.627,4.879-15.48,8.145V115.881q.623.576,1.315,1.113a21.379,21.379,0,0,0,12.924,4.5,18.378,18.378,0,0,0,3.01-.244,28.054,28.054,0,0,0,4.142-1.019ZM18.019,79.659a30.074,30.074,0,0,0,3.655,5.364,25.932,25.932,0,0,0,3.733,3.548,24.125,24.125,0,0,1-7.388,13.167Zm9.83-32.791A33.675,33.675,0,0,0,22.976,66.9c.748,9.893,8.468,19.554,17.809,22.538.09.189.183.379.277.567A25.992,25.992,0,0,1,29.519,85.6a2.232,2.232,0,0,0-.21-.148,21.845,21.845,0,0,1-3.949-3.58A27.692,27.692,0,0,1,19.2,61.57a33.934,33.934,0,0,1,7.286-17.2C26.907,45.222,27.362,46.057,27.849,46.868Zm6.625,69.6a16.026,16.026,0,0,1-12.166-3.3,11.787,11.787,0,0,1-4.1-5.39A28.625,28.625,0,0,0,29.748,91.386a30.456,30.456,0,0,0,14.09,3.639c.114,0,.227,0,.341-.005a32.2,32.2,0,0,0,7.512,7.142C49.642,109.218,42.659,115.109,34.474,116.466ZM27.812,66.539a30.2,30.2,0,0,1,4.725-18.106,2.384,2.384,0,0,0,.38-.6A38.837,38.837,0,0,1,37.7,41.875v33.9a31.866,31.866,0,0,0,.861,7.372C32.793,79.717,28.308,73.1,27.812,66.539Zm3.109-24.164a31.712,31.712,0,0,1-3.175-18.282,22.967,22.967,0,0,1,.869-3.762H60.889c-3.069,2.157-6.376,4.062-9.811,6.036-1.877,1.079-3.817,2.2-5.7,3.35A54.409,54.409,0,0,0,30.921,42.375Zm-6.508-3.081a41.93,41.93,0,0,0-6.394,9.46V20.332h5.548a28.6,28.6,0,0,0-.619,3.047A35.33,35.33,0,0,0,24.413,39.294ZM56.4,54.305a2.447,2.447,0,0,0,4.058-1.119,2.5,2.5,0,0,0-.87-2.52l5.675,1.295L57.65,56.022l-6.966-4.105,5.894-1.2c-.114.023-.289.274-.357.36a2.487,2.487,0,0,0-.293.476A2.452,2.452,0,0,0,56.4,54.305ZM96.543,20.332a58.447,58.447,0,0,1,.184,7.684,30.465,30.465,0,0,0-6.948-7.551c-.061-.045-.123-.087-.183-.133ZM86.572,49.949a2.422,2.422,0,1,0,4.613-1.4l-.024-.049,2.392.611L89.47,52.737l-5.539-2.828S86.683,48.6,86.683,48.6c-.149.071-.15.37-.158.5A3.314,3.314,0,0,0,86.572,49.949Zm-73.4-31.176V146.787L5.35,156.342V9.218Zm3.575,131.305H120.617l8.7,10.632H8.043Zm107.447-3.29V46.374a2.425,2.425,0,1,0-4.85,0v86.644l-9.965-9.572a32.013,32.013,0,0,0,6.441-12.4c1.949-7.393,1.343-14.631-1.706-20.38a2.425,2.425,0,0,0-4.373.184,7.474,7.474,0,0,1-1.58,2.515c-2.226,2.141-5.944,1.336-8.314-.508a21.142,21.142,0,0,1-2.083-2.122c-1.976-2.18-4.7-5.184-7.916-5.628V79.129l9.746.093h.024a2.424,2.424,0,0,0,2.424-2.472l-.749-38.592.248-8.621a74.95,74.95,0,0,0-.123-9.207h17.926V36.34a2.425,2.425,0,1,0,4.85,0V18.773l7.817-9.554V156.342Zm0,0" transform="translate(0 0)"/>
  </g>
</svg>
